<?xml version="1.0" encoding="UTF-8" standalone="no"?>
<svg
   xmlns:dc="http://purl.org/dc/elements/1.1/"
   xmlns:cc="http://creativecommons.org/ns#"
   xmlns:rdf="http://www.w3.org/1999/02/22-rdf-syntax-ns#"
   xmlns:svg="http://www.w3.org/2000/svg"
   xmlns="http://www.w3.org/2000/svg"
   version="1.1"
   width="128"
   height="128"
   id="turtl-logo">
  <metadata
     id="metadata3033">
    <rdf:RDF>
      <cc:Work
         rdf:about="">
        <dc:format>image/svg+xml</dc:format>
        <dc:type
           rdf:resource="http://purl.org/dc/dcmitype/StillImage" />
        <dc:title></dc:title>
      </cc:Work>
    </rdf:RDF>
  </metadata>
  <defs
     id="defs3031" />
  <path
     d="m 64,126 -22,0 0,-4 -2,-2 -10,-2 -12,0 0,-4 -2,-2 -2,-2 -4,0 0,-4 -2,-2 -4,-2 -4,-6 0,-10.000004 c 57.748962,-10.83259 63.457627,-10.83259 128,0 L 128,96 l -4,6 -4,2 -2,2 0,4 -4,0 -2,2 -2,2 0,4 -12,0 -10,2 -2,2 0,4 z"
     id="area-white"
     style="fill:#ffffff;" />
  <path
     d="m 64,100.82 -29.5,0 0,-3.92308 0,-3.923071 -7.875,0 -7.875,0 0,-3.92308 0,-3.92308 -7.875,0 -7.875,0 -2,-13.692303 2,-13.692308 3.9375,0 3.9375,0 0,-7.846155 0,-7.846154 3.9375,0 3.9375,0 0,-7.846154 0,-7.846154 3.9375,0 3.9375,0 0,-3.923077 0,-3.923077 3.9375,0 3.9375,0 0,-3.923077 0,-3.923077 7.875,0 7.875,0 0,-3.923077 0,-3.923077 13.75,-2 13.75,2 0,3.923077 0,3.923077 7.875,0 7.875,0 0,3.923077 0,3.923077 3.9375,0 3.9375,0 0,3.923077 0,3.923077 3.9375,0 3.9375,0 0,7.846154 0,7.846154 3.9375,0 3.9375,0 0,7.846154 0,7.846155 3.9375,0 3.9375,0 2,13.692308 -2,13.692303 -7.875,0 -7.875,0 0,3.92308 0,3.92308 -7.875,0 -7.875,0 0,3.923071 0,3.92308 z"
     id="area-green"
     style="fill:#8fc46a;" />
  <path
     d="m 64,128 -24,0 0,-4 0,-4 -12,0 -12,0 0,-4 0,-4 -4,0 -4,0 0,-4 0,-4 -4,0 -4,0 0,-4 0,-4 4,0 4,0 0,4 0,4 4,0 4,0 0,4 0,4 12,0 12,0 0,4 0,4 24,0 24,0 0,-4 0,-4 12,0 12,0 0,-4 0,-4 4,0 4,0 0,-4 0,-4 4,0 4,0 0,4 0,4 -4,0 -4,0 0,4 0,4 -4,0 -4,0 0,4 0,4 -12,0 -12,0 0,4 0,4 -24,0 z m 0,-24 -32,0 0,-4 0,-4 -8,0 -8,0 0,-4 0,-4 -8,0 -8,0 0,-16 0,-16 4,0 4,0 0,-8 0,-8 4,0 4,0 0,-8 0,-8 4,0 4,0 0,-4 0,-4 4,0 4,0 0,-4 0,-4 8,0 8,0 0,-4 0,-4 16,0 16,0 0,4 0,4 8,0 8,0 0,4 0,4 4,0 4,0 0,4 0,4 4,0 4,0 0,8 0,8 4,0 4,0 0,8 0,8 4,0 4,0 0,16 0,16 -8,0 -8,0 0,4 0,4 -8,0 -8,0 0,4 0,4 -32,0 z m 0,-8 24,0 0,-8 0,-8 4,0 4,0 0,4 0,4 4,0 4,0 0,-4 0,-4 8,0 8,0 0,-8 0,-8 -12,0 -12,0 0,-4 0,-4 8,0 8,0 0,-4 0,-4 -4,0 -4,0 0,-8 0,-8 -4,0 -4,0 0,-4 0,-4 -8,0 -8,0 0,-4 0,-4 -4,0 -4,0 0,-4 0,-4 -8,0 -8,0 0,4 0,4 -4,0 -4,0 0,4 0,4 -8,0 -8,0 0,4 0,4 -4,0 -4,0 0,8 0,8 -4,0 -4,0 0,4 0,4 8,0 8,0 0,4 0,4 -12,0 -12,0 0,8 0,8 8,0 8,0 0,4 0,4 4,0 4,0 0,-4 0,-4 4,0 4,0 0,8 0,8 24,0 z m -20,-16 -4,0 0,-4 0,-4 4,0 4,0 0,-4 0,-4 -4,0 -4,0 0,-4 0,-4 -4,0 -4,0 0,-8 0,-8 4,0 4,0 0,-4 0,-4 4,0 4,0 0,-4 0,-4 16,0 16,0 0,4 0,4 4,0 4,0 0,4 0,4 4,0 4,0 0,8 0,8 -4,0 -4,0 0,4 0,4 -4,0 -4,0 0,4 0,4 4,0 4,0 0,4 0,4 -4,0 -4,0 0,-4 0,-4 -16,0 -16,0 0,4 0,4 -4,0 z m 20,-16 16,0 0,-4 0,-4 4,0 4,0 0,-8 0,-8 -4,0 -4,0 0,-4 0,-4 -16,0 -16,0 0,4 0,4 -4,0 -4,0 0,8 0,8 4,0 4,0 0,4 0,4 16,0 z"
     id="area-black"
     style="fill:#000000" />
</svg>
